<?xml version="1.0" standalone="no"?>
<!DOCTYPE svg PUBLIC "-//W3C//DTD SVG 20010904//EN"
 "http://www.w3.org/TR/2001/REC-SVG-20010904/DTD/svg10.dtd">
<svg version="1.0" xmlns="http://www.w3.org/2000/svg"
 width="500.000000pt" height="500.000000pt" viewBox="0 0 500.000000 500.000000"
 preserveAspectRatio="xMidYMid meet">

<g transform="translate(0.000000,500.000000) scale(0.100000,-0.100000)"
fill="#000000" stroke="none">
<path d="M2404 4403 c-50 -119 -104 -253 -104 -258 0 -3 6 -5 14 -5 8 0 21 18
30 40 l16 40 85 0 c47 0 85 -3 85 -7 0 -5 9 -23 21 -42 14 -22 24 -30 30 -24
14 14 -125 293 -146 293 -8 0 -22 -17 -31 -37z m74 -84 l30 -66 -66 -6 c-36
-4 -67 -5 -69 -3 -2 1 11 37 29 79 18 43 35 74 39 70 4 -5 21 -38 37 -74z"/>
<path d="M3046 4222 c-42 -109 -53 -148 -43 -154 7 -4 15 -1 19 10 62 147 76
162 138 140 49 -16 54 -46 24 -129 -18 -50 -23 -74 -15 -82 7 -7 16 4 30 36
35 82 43 120 32 149 -13 35 -64 61 -107 56 -37 -4 -38 -2 -8 71 17 41 17 38 0
44 -10 4 -29 -33 -70 -141z"/>
<path d="M2635 4273 c-3 -49 -9 -98 -12 -110 -4 -17 -1 -23 11 -23 17 0 22 17
29 93 5 54 27 84 65 89 14 2 27 9 30 16 6 18 -48 15 -70 -5 -17 -15 -18 -15
-18 5 0 12 -6 22 -14 22 -10 0 -15 -23 -21 -87z"/>
<path d="M2817 4299 c-37 -28 -54 -88 -37 -129 19 -45 56 -70 104 -70 23 0 50
6 61 13 25 19 4 29 -33 16 -40 -14 -81 5 -100 45 -12 23 -12 34 0 64 24 65 90
80 139 31 21 -21 42 -18 32 7 -16 43 -122 58 -166 23z"/>
<path d="M2005 4298 c-11 -6 -28 -20 -37 -32 -15 -18 -18 -19 -18 -3 0 9 -7
17 -16 17 -11 0 -15 -6 -12 -17 41 -163 54 -203 65 -203 17 0 16 12 -2 80 -20
74 -19 87 10 115 29 29 75 33 98 8 8 -10 23 -48 32 -85 11 -43 23 -68 31 -68
8 0 14 6 14 14 0 32 -43 149 -61 167 -21 21 -72 25 -104 7z"/>
<path d="M3372 4223 c2 -10 10 -18 18 -18 22 0 18 29 -3 33 -14 3 -18 -1 -15
-15z"/>
<path d="M1743 4205 c-40 -17 -67 -58 -67 -101 0 -68 48 -114 120 -114 51 0
104 53 104 104 0 52 -25 95 -65 112 -42 17 -51 17 -92 -1z m101 -46 c72 -86
-33 -195 -112 -116 -37 37 -36 91 2 123 38 34 78 31 110 -7z"/>
<path d="M1512 4173 c2 -10 10 -18 18 -18 8 0 16 8 18 18 2 12 -3 17 -18 17
-15 0 -20 -5 -18 -17z"/>
<path d="M3291 4063 c-36 -69 -47 -99 -38 -105 13 -8 120 179 111 194 -12 19
-26 2 -73 -89z"/>
<path d="M3466 4125 c-4 -11 -13 -14 -31 -9 -27 7 -35 -10 -10 -23 12 -7 8
-20 -25 -73 -22 -36 -39 -77 -40 -92 0 -29 31 -58 62 -58 24 0 23 16 -2 23
-11 3 -23 13 -27 23 -6 17 20 76 57 124 19 25 19 25 49 7 25 -15 31 -15 31 -4
0 8 -12 22 -26 32 -19 12 -23 20 -15 28 6 6 11 17 11 24 0 18 -27 16 -34 -2z"/>
<path d="M1564 4107 c-2 -7 19 -54 49 -105 38 -66 56 -89 66 -83 10 7 1 31
-43 105 -31 53 -59 96 -62 96 -2 0 -7 -6 -10 -13z"/>
<path d="M1387 4054 c-3 -4 -1 -16 5 -27 8 -16 7 -23 -6 -32 -20 -15 -10 -26
19 -19 17 4 27 -3 50 -38 43 -67 66 -88 95 -88 32 0 78 44 59 55 -7 5 -16 1
-21 -9 -5 -9 -20 -16 -33 -16 -18 0 -34 15 -66 62 l-42 61 28 22 c34 28 17 43
-21 19 -24 -17 -27 -17 -36 -1 -9 18 -20 21 -31 11z"/>
<path d="M3549 3963 c-33 -20 -59 -63 -59 -98 0 -57 48 -111 105 -117 41 -4
42 18 1 26 -41 8 -76 47 -76 85 0 53 13 52 87 -10 l72 -59 15 22 c9 12 16 40
16 61 0 31 -7 46 -34 73 -39 39 -83 45 -127 17z m96 -19 c24 -10 46 -60 39
-89 -3 -14 -8 -25 -11 -25 -3 0 -31 21 -64 46 -47 37 -57 50 -48 60 12 15 56
18 84 8z"/>
<path d="M1312 3937 c-9 -10 -3 -22 29 -53 73 -70 82 -111 36 -154 -37 -35
-65 -26 -127 42 -37 39 -59 57 -64 49 -8 -13 38 -76 85 -115 43 -37 83 -34
125 8 19 19 34 41 34 49 0 10 7 13 20 10 34 -9 23 12 -46 89 -37 40 -70 77
-74 81 -4 4 -12 2 -18 -6z"/>
<path d="M1034 3789 c-3 -6 0 -17 7 -24 52 -49 213 -185 220 -185 28 0 6 28
-83 106 -129 113 -135 117 -144 103z"/>
<path d="M3712 3770 c-17 -16 -33 -43 -37 -59 -8 -37 16 -94 47 -115 31 -20
70 -24 75 -8 3 7 -4 12 -17 12 -30 0 -80 53 -80 84 0 39 50 89 89 89 38 0 78
-35 84 -72 6 -38 27 -38 27 -1 0 23 -10 42 -34 66 -29 29 -41 34 -79 34 -37 0
-51 -6 -75 -30z"/>
<path d="M3935 3661 c-3 -5 -1 -12 5 -16 19 -12 10 -24 -50 -66 -36 -25 -63
-52 -66 -66 -8 -29 9 -71 31 -80 25 -9 30 5 11 26 -27 29 -17 51 48 99 l58 45
22 -28 c16 -20 25 -25 30 -16 5 7 1 20 -8 30 -20 22 -20 31 1 46 23 17 8 38
-19 24 -14 -8 -23 -8 -31 0 -13 13 -24 14 -32 2z"/>
<path d="M994 3586 c-26 -26 -34 -42 -34 -70 0 -70 44 -118 109 -120 111 -3
161 148 68 204 -51 32 -103 26 -143 -14z m141 -28 c33 -40 32 -73 -5 -110 -26
-25 -36 -29 -62 -24 -66 13 -97 70 -71 125 27 55 96 60 138 9z"/>
<path d="M794 3405 c-18 -24 -29 -52 -32 -84 -4 -43 -1 -50 23 -69 15 -12 36
-22 47 -22 10 0 47 27 83 60 55 51 68 58 87 51 46 -16 32 -99 -25 -147 -39
-32 -23 -55 17 -23 34 27 66 89 66 129 0 36 -38 80 -70 80 -11 0 -49 -27 -85
-60 -35 -33 -68 -60 -73 -60 -4 0 -16 6 -27 14 -28 20 -22 72 14 117 35 43 37
49 17 49 -8 0 -27 -16 -42 -35z"/>
<path d="M3935 3310 c-4 -7 -3 -16 3 -22 14 -14 45 -2 40 15 -6 16 -34 21 -43
7z"/>
<path d="M4270 3232 c0 -5 7 -29 15 -52 8 -23 15 -44 15 -45 0 -3 -16 -10
-129 -50 -69 -24 -75 -25 -98 -9 -22 14 -25 21 -20 60 3 32 1 44 -8 44 -16 0
-25 -22 -25 -62 0 -32 47 -88 74 -88 8 0 67 18 130 41 l115 41 -23 61 c-20 53
-46 87 -46 59z"/>
<path d="M903 3004 c-7 -20 17 -37 34 -23 15 13 6 39 -13 39 -8 0 -17 -7 -21
-16z"/>
<path d="M4255 2990 c-3 -5 3 -22 14 -36 27 -35 28 -90 2 -104 -33 -17 -39
-12 -51 41 -14 57 -39 89 -70 89 -30 0 -60 -36 -60 -70 0 -35 23 -86 42 -93 8
-3 6 -6 -4 -6 -18 -1 -26 -31 -9 -31 5 0 41 7 82 17 81 18 119 46 119 88 0 52
-49 132 -65 105z m-69 -70 c22 -46 26 -87 10 -93 -25 -10 -56 5 -71 34 -19 36
-19 54 1 74 22 21 46 15 60 -15z"/>
<path d="M704 2975 c-3 -8 1 -28 10 -45 14 -29 14 -31 -3 -25 -11 3 -21 0 -24
-9 -4 -11 18 -20 101 -39 64 -15 111 -22 116 -16 15 13 2 20 -66 36 -73 17
-108 44 -108 85 0 30 -17 38 -26 13z"/>
<path d="M697 2780 c-30 -24 -51 -80 -42 -112 11 -37 54 -76 90 -82 96 -18
169 88 120 174 -16 29 -18 24 -15 -45 2 -56 -17 -88 -59 -100 l-24 -7 7 68 c4
38 9 81 12 97 5 25 3 27 -29 27 -19 0 -46 -9 -60 -20z m59 -56 c-3 -26 -6 -60
-6 -75 0 -19 -5 -29 -15 -29 -23 0 -55 41 -55 71 0 34 35 79 62 79 19 0 20 -4
14 -46z"/>
<path d="M4230 2715 c-64 -36 -95 -59 -95 -71 0 -14 25 -27 105 -56 120 -42
120 -42 120 -25 0 7 -42 27 -95 46 -53 19 -93 36 -91 39 3 2 42 25 87 51 74
41 96 62 72 67 -4 1 -51 -22 -103 -51z"/>
<path d="M714 2541 c-60 -26 -86 -124 -45 -168 20 -21 20 -21 0 -26 -41 -11
-18 -27 39 -27 132 0 252 13 252 27 0 9 -16 13 -55 13 -51 0 -69 10 -45 25 6
3 10 26 10 50 0 60 -38 104 -95 110 -22 3 -50 1 -61 -4z m107 -50 c17 -18 29
-40 29 -56 0 -37 -50 -85 -89 -85 -46 0 -85 39 -85 85 0 78 89 112 145 56z"/>
<path d="M4157 2502 c-26 -28 -31 -75 -13 -111 15 -27 15 -31 1 -31 -20 0 -19
-16 1 -24 9 -3 49 -6 89 -6 88 0 114 16 121 75 7 47 -9 95 -31 95 -12 0 -14
-4 -5 -19 26 -50 3 -121 -41 -121 -17 0 -19 7 -19 60 0 47 -4 64 -20 80 -25
25 -62 26 -83 2z m73 -31 c21 -40 10 -111 -18 -111 -43 0 -72 86 -40 118 18
18 46 14 58 -7z"/>
<path d="M744 2254 c-99 -49 -73 -199 36 -211 99 -10 160 80 114 168 -15 30
-66 59 -101 59 -10 0 -32 -7 -49 -16z m95 -29 c32 -16 41 -33 41 -75 0 -42
-29 -70 -77 -77 -35 -5 -45 -2 -67 20 -34 34 -35 85 -3 114 38 35 65 40 106
18z"/>
<path d="M4082 2085 c-27 -104 -20 -147 32 -193 71 -62 175 -47 220 32 22 38
61 154 54 161 -3 3 -273 85 -280 85 -2 0 -14 -38 -26 -85z m159 13 c121 -34
120 -34 94 -109 -31 -88 -97 -125 -168 -95 -38 15 -77 67 -77 100 0 23 31 136
37 136 2 0 53 -14 114 -32z"/>
<path d="M793 1972 c-82 -27 -143 -52 -143 -59 0 -19 12 -17 160 30 97 31 136
48 138 60 4 22 11 23 -155 -31z"/>
<path d="M936 1911 c-4 -5 7 -23 24 -39 32 -32 39 -76 20 -113 -19 -35 -37
-20 -71 61 -19 44 -39 80 -45 80 -15 0 -61 -51 -69 -78 -8 -28 10 -84 35 -107
10 -9 36 -19 58 -22 99 -13 165 88 112 174 -21 35 -55 58 -64 44z m-38 -121
l31 -70 -34 0 c-60 0 -98 78 -58 122 9 10 19 18 23 18 4 0 21 -31 38 -70z"/>
<path d="M4025 1840 c-38 -15 -67 -57 -72 -104 -5 -38 -3 -46 11 -46 12 0 16
9 16 36 0 26 8 43 29 65 29 28 81 40 81 19 0 -6 -18 -46 -40 -89 -43 -87 -42
-91 26 -91 46 0 70 14 89 50 31 59 10 126 -49 154 -37 17 -60 19 -91 6z m120
-70 c17 -33 12 -71 -13 -93 -22 -20 -68 -31 -76 -18 -7 11 54 141 66 141 4 0
14 -13 23 -30z"/>
<path d="M970 1643 c-101 -15 -109 -18 -94 -32 5 -5 48 -3 103 5 52 8 96 12
99 10 2 -3 -21 -42 -53 -87 -41 -58 -54 -84 -46 -92 6 -6 12 -9 14 -6 35 40
127 194 123 205 -6 17 -21 16 -146 -3z"/>
<path d="M3856 1594 c-9 -22 113 -219 127 -205 6 6 -7 37 -41 92 -28 46 -50
85 -47 87 2 2 45 -3 95 -12 84 -16 110 -15 110 3 0 4 -48 15 -107 25 -60 10
-113 20 -119 23 -6 2 -14 -3 -18 -13z"/>
<path d="M1160 1506 c0 -9 6 -16 14 -16 7 0 25 -12 40 -26 19 -20 26 -37 26
-65 0 -71 -17 -64 -108 46 l-33 40 -25 -28 c-45 -52 -28 -129 36 -162 37 -19
54 -19 96 1 70 34 86 121 32 178 -38 40 -78 56 -78 32z m-6 -123 c35 -42 44
-58 34 -65 -34 -21 -92 4 -108 48 -10 25 2 74 19 74 4 0 30 -25 55 -57z"/>
<path d="M3738 1434 c-30 -16 -58 -61 -58 -94 0 -32 17 -23 30 15 14 43 44 65
87 65 49 0 49 -18 1 -68 -86 -91 -84 -88 -49 -106 50 -26 88 -21 127 18 28 28
34 42 34 76 0 34 -6 48 -34 76 -27 27 -42 34 -72 34 -22 -1 -51 -7 -66 -16z
m140 -126 c-6 -16 -18 -33 -28 -38 -23 -13 -77 -13 -84 -1 -4 5 17 35 46 66
l52 58 12 -29 c8 -19 9 -37 2 -56z"/>
<path d="M1283 1291 c-72 -33 -108 -117 -79 -184 14 -36 62 -86 118 -128 l26
-19 97 112 96 112 -38 34 c-101 87 -152 104 -220 73z m112 -31 c22 -10 54 -32
72 -47 l32 -29 -51 -59 c-28 -33 -64 -75 -79 -93 l-29 -33 -45 37 c-83 70 -95
142 -32 201 28 28 50 39 82 42 6 0 28 -8 50 -19z"/>
<path d="M3590 1290 c0 -7 43 -60 96 -118 54 -59 101 -111 105 -116 5 -5 11
-2 15 7 4 12 -23 48 -92 124 -94 103 -124 128 -124 103z"/>
<path d="M3474 1195 c-78 -40 -84 -150 -10 -199 54 -35 140 -8 165 53 39 94
-65 192 -155 146z m107 -44 c37 -38 39 -82 4 -116 -36 -37 -86 -34 -119 6 -34
40 -34 83 0 114 37 34 78 33 115 -4z"/>
<path d="M3275 1160 c-4 -6 5 -30 19 -55 14 -24 26 -45 26 -47 0 -2 -21 -3
-46 -3 -39 -1 -51 -5 -75 -33 -64 -71 -11 -192 83 -192 31 0 89 37 95 61 5 20
23 27 23 9 0 -11 30 -14 30 -2 0 13 -135 272 -142 272 -4 0 -10 -5 -13 -10z
m63 -153 c12 -13 25 -37 28 -55 5 -26 1 -36 -24 -62 -39 -38 -76 -39 -114 -3
-57 54 -24 143 52 143 25 0 43 -7 58 -23z"/>
<path d="M1664 1055 c-39 -20 -64 -63 -64 -110 0 -29 8 -45 35 -72 31 -31 40
-35 75 -31 22 2 40 2 40 0 0 -1 -12 -26 -26 -54 -18 -35 -22 -54 -15 -61 6 -6
12 -9 15 -6 9 10 136 270 136 279 0 5 -7 10 -15 10 -8 0 -15 -4 -15 -10 0 -18
-17 -11 -23 9 -11 44 -93 71 -143 46z m107 -44 c40 -40 38 -74 -6 -118 -29
-29 -40 -34 -63 -28 -74 18 -96 93 -43 146 38 38 74 38 112 0z"/>
<path d="M1917 953 c-15 -15 -5 -20 37 -19 54 1 96 -32 96 -75 l0 -28 -87 30
c-48 16 -88 29 -89 29 -12 0 -12 -65 -1 -92 32 -77 144 -86 187 -15 32 51 26
103 -14 143 -28 28 -41 34 -78 34 -25 0 -48 -3 -51 -7z m100 -134 c29 -11 29
-24 1 -43 -50 -35 -128 0 -128 58 l0 25 52 -15 c28 -9 62 -20 75 -25z"/>
<path d="M2978 944 c-31 -16 -53 -50 -39 -59 5 -3 21 6 35 20 32 32 94 35 121
5 24 -27 16 -33 -77 -60 -43 -13 -78 -28 -78 -35 0 -23 40 -64 74 -75 27 -9
42 -8 69 3 46 20 67 52 67 105 0 37 -6 50 -34 78 -27 27 -42 34 -72 34 -22 -1
-51 -7 -66 -16z m143 -126 c-12 -31 -47 -58 -76 -58 -26 0 -67 28 -62 43 4 14
130 57 140 47 4 -4 3 -18 -2 -32z"/>
<path d="M2835 888 c28 -119 24 -160 -20 -180 -21 -10 -36 -38 -19 -38 12 0
50 24 61 39 11 14 12 14 13 -1 0 -21 30 -24 30 -4 0 13 -21 123 -35 184 -3 12
-12 22 -20 22 -11 0 -14 -7 -10 -22z"/>
<path d="M2212 887 c-12 -16 -122 -258 -122 -269 0 -4 6 -8 13 -8 7 0 37 55
67 121 30 67 56 115 59 108 3 -8 16 -66 31 -129 34 -153 44 -154 113 -3 48
104 67 133 67 101 0 -7 12 -64 26 -125 19 -83 30 -113 41 -113 11 0 14 7 10
23 -3 12 -18 79 -34 150 -37 167 -44 168 -120 10 -30 -65 -57 -113 -58 -108
-2 6 -16 63 -30 127 -26 112 -42 142 -63 115z"/>
<path d="M2583 864 c-8 -21 13 -42 28 -27 13 13 5 43 -11 43 -6 0 -13 -7 -17
-16z"/>
</g>
</svg>
